<?xml version="1.0" encoding="UTF-8"?>
<svg id="Layer_1" xmlns="http://www.w3.org/2000/svg" version="1.1" viewBox="0 0 749 675.8">
  <!-- Generator: Adobe Illustrator 29.2.1, SVG Export Plug-In . SVG Version: 2.1.0 Build 116)  -->
  <defs>
    <style>
      .st0 {
        fill: #fff;
      }

      .st1 {
        opacity: .5;
      }
    </style>
  </defs>
  <path class="st0" d="M24.1,499.6c-12.9-13.3-18.2-27.1-19.8-45.5-4.9-56.8-6.6-188.4,0-243.5,9.3-77.3,95.9-50.7,148.8-58.4C198.8,80.7,292-13.2,384.8,1.5c20.6,3.3,23.6,14.9,25.3,33.3,17.6,191.6-13.8,409.6,0,604-.9,47.3-47.6,38.5-80.7,30.7-72.9-17.3-133.8-90.2-176.3-148-43.8-10-94.4,13.8-129-21.9h0ZM177.9,217.5h-103.6c-6.4,3.9-6.2,9-7,15.5-5,42.8-5,164.9,0,207.7.8,6.6.6,11.6,7,15.5h108.1c46.1,54.2,84.6,121.2,155.1,146.9l9.3-5V75.6c0-11.3-25.6,2.2-31,5-15.9,8.2-46.2,31.7-59.2,44.4-18,17.5-62.7,89.1-78.6,92.5h0Z"/>
  <g class="st1">
    <path class="st0" d="M24.1,499.6c34.6,35.6,85.3,11.8,129,21.9,42.5,57.8,103.4,130.8,176.3,148,33.1,7.8,79.8,16.6,80.7-30.7-13.8-194.4,17.5-412.4,0-604-1.7-18.4-4.6-30-25.3-33.3-92.9-14.7-186.1,79.1-231.6,150.7-52.9,7.6-139.5-18.9-148.8,58.4-6.6,55.1-5,186.7,0,243.5,1.6,18.4,6.9,32.2,19.8,45.5h0ZM597.5,553.7c-23.7,24.2-124.6,71.4-58.1,104.2,21.4,10.5,46.4-11.1,63.8-24.1,193.2-144.2,193.3-436.3,7-587.4-18.6-15.1-48.2-39.9-71.4-26.6-55.4,31.8,39.4,79.7,60.3,100.9,114.5,116.2,112.2,316.8-1.5,433.1h0ZM487.6,513.6c24.5,26,51.9-2.6,68.7-21.3,76.9-85.8,76.2-228.1-2.4-313-16.6-17.9-33.5-37.1-61-20.7-36,21.4,6.9,52.3,18,68.1,43.6,62.5,52.6,130.3,14,198.1-13.8,24.1-63.4,61-37.3,88.8h0Z"/>
    <path class="st0" d="M597.5,553.7c113.7-116.3,116-316.8,1.5-433.1-20.9-21.2-115.6-69.1-60.3-100.8,23.3-13.3,52.8,11.5,71.4,26.6,186.3,151.1,186.2,443.2-7,587.4-17.4,13-42.4,34.6-63.8,24.1-66.5-32.7,34.4-79.9,58.1-104.2h0Z"/>
    <path class="st0" d="M487.6,513.6c-26.2-27.8,23.5-64.7,37.3-88.8,38.7-67.7,29.6-135.6-14-198.1-11.1-15.9-54-46.7-18-68.1,27.5-16.4,44.4,2.7,61,20.7,78.6,84.9,79.3,227.2,2.4,313-16.8,18.7-44.2,47.3-68.7,21.3h0Z"/>
  </g>
</svg>