<?xml version="1.0" encoding="UTF-8"?>
<svg id="Layer_1" xmlns="http://www.w3.org/2000/svg" version="1.1" viewBox="0 0 770.7 675.8">
  <!-- Generator: Adobe Illustrator 29.2.1, SVG Export Plug-In . SVG Version: 2.1.0 Build 116)  -->
  <defs>
    <style>
      .st0, .st1 {
        fill: #fff;
      }

      .st1 {
        isolation: isolate;
      }

      .st1, .st2 {
        opacity: .5;
      }
    </style>
  </defs>
  <path class="st0" d="M24.1,499.6c-12.9-13.3-18.2-27.1-19.8-45.5-4.9-56.8-6.6-188.4,0-243.5,9.3-77.3,95.9-50.7,148.8-58.4C198.8,80.7,292-13.2,384.8,1.5c20.6,3.3,23.6,14.9,25.3,33.3,17.6,191.6-13.8,409.6,0,604-.9,47.3-47.6,38.5-80.7,30.7-72.9-17.3-133.8-90.2-176.3-148-43.8-10-94.4,13.8-129-21.9h0ZM177.9,217.5h-103.6c-6.4,3.9-6.2,9-7,15.5-5,42.8-5,164.9,0,207.7.8,6.6.6,11.6,7,15.5h108.1c46.1,54.2,84.6,121.2,155.1,146.9l9.3-5V75.6c0-11.3-25.6,2.2-31,5-15.9,8.2-46.2,31.7-59.2,44.4-18,17.5-62.7,89.1-78.6,92.5h0Z"/>
  <g class="st2">
    <path class="st0" d="M24.1,499.6c34.6,35.6,85.3,11.8,129,21.9,42.5,57.8,103.4,130.8,176.3,148,33.1,7.8,79.8,16.6,80.7-30.7-13.8-194.4,17.5-412.4,0-604-1.7-18.4-4.6-30-25.3-33.3-92.9-14.7-186.1,79.1-231.6,150.7-52.9,7.6-139.5-18.9-148.8,58.4-6.6,55.1-5,186.7,0,243.5,1.6,18.4,6.9,32.2,19.8,45.5h0Z"/>
  </g>
  <path class="st1" d="M522,180.8c-30.5,1.7-47.3,28.4-41.7,57.6,4.9,25.2,75.4,68.8,75.4,88.1-17.9,41.8-101.8,71.7-69.6,125.9,44.3,74.7,119.1-63.4,140.7-59.6,36.9,23.7,76.6,110,126.4,68.6,60.4-50.1-59.9-107.4-59.9-134.9,17-40.2,103.2-74.2,69.7-125.9-45.8-70.8-120.4,63.2-140.7,59.6-28.2-18.6-65-81.2-100.3-79.3h0Z"/>
</svg>