<?xml version="1.0" encoding="UTF-8"?>
<svg id="Layer_1" xmlns="http://www.w3.org/2000/svg" version="1.1" viewBox="0 0 800 800">
  <!-- Generator: Adobe Illustrator 29.2.1, SVG Export Plug-In . SVG Version: 2.1.0 Build 116)  -->
  <defs>
    <style>
      .st0 {
        fill: #fff;
      }
    </style>
  </defs>
  <path class="st0" d="M690.3,121.8s64.8-25.2,59.4,36.1c-1.8,25.3-18,113.6-30.6,209.2l-43.2,283.2s-3.6,41.5-36,48.7c-32.4,7.2-80.9-25.2-89.9-32.5-7.2-5.4-134.9-86.6-179.9-126.3-12.6-10.8-27-32.5,1.8-57.7l188.9-180.4c21.6-21.6,43.2-72.1-46.8-10.8l-251.8,171.3s-28.8,18-82.7,1.8l-116.9-36.1s-43.2-27.1,30.6-54.1c179.9-84.8,401.1-171.3,597.2-252.5Z"/>
</svg>